<?xml version="1.0" encoding="utf-8"?>
<!-- Generator: Adobe Illustrator 26.3.1, SVG Export Plug-In . SVG Version: 6.00 Build 0)  -->
<svg version="1.1" id="Layer_1" xmlns="http://www.w3.org/2000/svg" xmlns:xlink="http://www.w3.org/1999/xlink" x="0px" y="0px"
	 viewBox="0 0 200 200" style="enable-background:new 0 0 200 200;" xml:space="preserve">
<style type="text/css">
	.st0{fill-rule:evenodd;clip-rule:evenodd;}
</style>
<g>
	<path d="M97.73,196.11l-3.15-7.55l-0.89-5.44l0.18-2.03l-8.16-1.07l-0.36,2.01l-2.26,5.01l-5.01,6.48l-5.11-1.37l-1.09-8.11
		l0.53-5.46l0.69-1.93l-7.58-3.13l-0.89,1.83l-3.48,4.25l-6.51,4.96l-4.58-2.64l1.04-8.11l1.93-5.14l1.17-1.68l-6.51-5.01
		l-1.32,1.55l-4.47,3.2l-7.57,3.13l-3.74-3.76l3.1-7.55l3.2-4.48l1.58-1.32l-5.01-6.53l-1.68,1.17l-5.16,1.96l-8.11,1.02l-2.64-4.58
		l4.96-6.51l4.25-3.48l1.86-0.87l-3.15-7.6l-1.91,0.69l-5.49,0.56l-8.11-1.09l-1.35-5.11l6.46-5.01l5.01-2.26l2.01-0.38l-1.07-8.14
		l-2.03,0.15l-5.41-0.89l-7.55-3.15V97.4l7.55-3.15l5.41-0.89l2.03,0.15l1.07-8.14l-2.01-0.36l-5.01-2.29l-6.46-4.98l1.37-5.11
		l8.08-1.09l5.49,0.53l1.91,0.69l3.15-7.6l-1.86-0.86l-4.25-3.48l-4.96-6.51l2.64-4.58l8.11,1.02l5.16,1.96l1.68,1.17l5.01-6.53
		l-1.58-1.32l-3.2-4.45L30.59,34l3.74-3.74l7.57,3.1l4.47,3.2l1.32,1.55l6.51-5.01l-1.14-1.68l-1.96-5.14l-1.04-8.11l4.58-2.64
		l6.51,4.96l3.48,4.25l0.89,1.86l7.58-3.15l-0.69-1.91l-0.53-5.49l1.09-8.08l5.11-1.37l5.01,6.46l2.26,5.01l0.36,2.01L93.87,19
		l-0.18-2.03l0.89-5.44L97.73,4h5.29l3.18,7.53l0.89,5.44L106.91,19l8.16,1.07l0.35-2.01l2.26-5.01l5.01-6.46l5.11,1.37l1.09,8.08
		l-0.53,5.49l-0.71,1.91l7.6,3.15l0.87-1.86l3.48-4.25l6.51-4.96l4.6,2.64l-1.04,8.11l-1.93,5.14l-1.19,1.68l6.53,5.01l1.32-1.55
		l4.47-3.2l7.58-3.1l3.74,3.74l-3.13,7.58l-3.21,4.45l-1.55,1.32l5.01,6.53l1.68-1.17l5.16-1.96l8.11-1.02l2.64,4.58l-4.96,6.51
		l-4.27,3.48l-1.83,0.86l3.13,7.6l1.93-0.69l5.49-0.53l8.09,1.09l1.37,5.11l-6.48,4.98l-5.01,2.29l-2.01,0.36l1.07,8.14l2.06-0.15
		l5.41,0.89l7.55,3.15v5.29l-7.55,3.15l-5.41,0.89l-2.06-0.15l-1.07,8.14l2.01,0.38l5.01,2.26l6.48,5.01l-1.37,5.11l-8.09,1.09
		l-5.49-0.56l-1.93-0.69l-3.13,7.6l1.83,0.89l4.27,3.46l4.96,6.51l-2.64,4.58l-8.11-1.04l-5.16-1.93l-1.68-1.17l-5.01,6.53
		l1.55,1.32l3.21,4.48l3.13,7.55l-3.74,3.76l-7.58-3.13l-4.47-3.2l-1.32-1.55l-6.51,5.01l1.17,1.68l1.93,5.14l1.04,8.11l-4.6,2.64
		l-6.51-4.96l-3.48-4.25l-0.87-1.83l-7.6,3.13l0.71,1.93l0.53,5.46l-1.09,8.11l-5.11,1.37l-5.01-6.48l-2.26-5.01l-0.35-2.01
		l-8.16,1.07l0.18,2.03l-0.89,5.44l-3.18,7.55H97.73z M166.47,100.04c0-36.45-29.62-66.07-66.07-66.07
		c-36.48,0-66.1,29.62-66.1,66.07c0,36.48,29.62,66.1,66.1,66.1C136.86,166.14,166.47,136.53,166.47,100.04z"/>
	<path class="st0" d="M100.38,88.68c6.28,0,11.39,5.08,11.39,11.36c0,6.28-5.11,11.39-11.39,11.39s-11.36-5.11-11.36-11.39
		C89.01,93.76,94.1,88.68,100.38,88.68z"/>
	<path class="st0" d="M93.05,171.63v-41.16c-5.97-1.42-11.26-4.58-15.35-8.87l-35.64,20.59l-7.35-12.71l35.64-20.57
		c-0.81-2.82-1.27-5.8-1.27-8.87c0-3.08,0.46-6.05,1.27-8.85L34.71,70.61l7.35-12.71l35.67,20.59c4.07-4.3,9.36-7.42,15.33-8.87
		V28.46h14.67v41.16c5.95,1.45,11.24,4.58,15.33,8.87l35.67-20.59l7.32,12.71L130.4,91.2c0.84,2.8,1.3,5.77,1.3,8.85
		c0,3.08-0.46,6.05-1.3,8.87l35.64,20.57l-7.32,12.71l-35.67-20.57c-4.09,4.3-9.38,7.42-15.33,8.85v41.16H93.05z M115.65,100.04
		c0-8.41-6.84-15.25-15.28-15.25c-8.41,0-15.25,6.84-15.25,15.25c0,8.44,6.84,15.28,15.25,15.28
		C108.82,115.32,115.65,108.48,115.65,100.04z"/>
</g>
</svg>
