<svg xmlns="http://www.w3.org/2000/svg" width="718.212" height="717.352" viewBox="0 0 718.212 717.352">
	<path id="Path_1" data-name="Path 1" d="M377.265,717.352l-6.984-14.721L365.607,687.8h-14.13L346.8,702.578l-7.038,14.667-11.5-.806-4.943-15.473L320.745,685.6l-14.023-1.934-6.662,14.076-8.972,13.539-11.282-2.364-2.74-16.01-.484-15.581-13.593-3.815-8.542,13L243.7,698.763l-10.853-3.868-.537-16.279,1.666-15.473L221.03,657.5l-10.262,11.712-12.25,10.638-10.262-5.319,1.666-16.172,3.761-15.1-12.088-7.36-11.712,10.208-13.646,8.919-9.4-6.716,3.868-15.8,5.749-14.452-10.96-8.919-13,8.542-14.721,6.931-8.381-7.9,5.964-15.1,7.683-13.539-9.671-10.369L99.34,584.434l-15.527,4.835-7.253-8.919,7.951-14.184,9.456-12.357-8.113-11.6-14.828,4.728-16.064,2.686L49,539.787l9.832-12.948L69.9,515.879l-6.5-12.572L48.085,505.94l-16.279.537-4.567-10.584,11.5-11.5,12.411-9.348-4.674-13.378-15.581.537-16.172-1.719L11.659,449.42l12.948-9.832L38.2,432.012l-2.847-13.861-15.527-1.558L4.083,412.671,2.525,401.227l14.184-7.952,14.452-5.641-.913-14.13-15.1-3.653L0,363.834V352.283l15.151-5.964,15.151-3.6.967-14.13-14.452-5.7L2.633,314.889l1.612-11.444,15.8-3.815,15.473-1.558,2.9-13.861-13.539-7.575L11.927,266.75l3.17-11.121,16.172-1.612,15.527.537,4.782-13.27-12.411-9.4-11.5-11.551,4.62-10.584,16.279.591,15.312,2.686,6.5-12.572-10.96-10.96-9.832-13,6.017-9.832,16.01,2.74,14.828,4.782,8.166-11.551-9.4-12.357-7.9-14.237,7.253-8.919,15.527,4.889,14.023,6.77,9.671-10.315-7.629-13.593-5.91-15.151,8.435-7.844,14.667,6.984,13,8.6,10.96-8.919-5.695-14.452-3.815-15.8,9.456-6.662,13.593,8.919L182.508,80.8,194.6,73.5l-3.653-15.1-1.612-16.225,10.208-5.265,12.3,10.692L222,59.367l13-5.641-1.612-15.473.591-16.225,10.906-3.868,10.638,12.3,8.489,13L277.657,39.7l.537-15.581,2.794-16.01L292.271,5.8,301.189,19.4l6.662,14.076,13.969-1.88,2.686-15.366L329.449.752,340.946,0l6.984,14.667L352.605,29.5h14.13l4.674-14.775L378.447,0l11.5.806,4.943,15.473,2.579,15.366,14.023,1.934,6.662-14.023,8.972-13.593,11.282,2.364,2.74,16.01.483,15.581,13.593,3.815,8.542-13,10.745-12.2L485.362,22.4l.537,16.225L484.234,54.1l13,5.641,10.208-11.712,12.3-10.638,10.208,5.319L528.29,58.884l-3.761,15.1,12.088,7.36,11.712-10.208,13.646-8.865,9.4,6.662-3.868,15.8-5.749,14.452,10.96,8.919,13-8.542,14.721-6.931,8.381,7.9-5.964,15.151-7.629,13.485,9.617,10.369,14.023-6.662,15.527-4.889,7.253,8.972-7.952,14.13-9.456,12.357,8.113,11.6,14.828-4.728,16.064-2.686,5.964,9.832-9.832,12.948-11.014,10.96,6.447,12.572,15.366-2.633,16.225-.484,4.567,10.584-11.5,11.444-12.411,9.4,4.728,13.324,15.527-.537,16.172,1.719,3.116,11.068-13,9.832-13.539,7.575,2.847,13.861,15.473,1.612,15.8,3.868,1.5,11.444L701.5,323.969,687.05,329.61l.913,14.13,15.151,3.707,15.1,5.964v11.551l-15.151,5.964-15.151,3.653-.967,14.076L701.4,394.35l14.184,8.005L713.967,413.8l-15.8,3.815L682.7,419.172l-2.9,13.861,13.539,7.629,12.948,9.832-3.116,11.121L687,463.281l-15.581-.591-4.728,13.324,12.357,9.4,11.5,11.5-4.62,10.584-16.225-.591-15.366-2.686-6.5,12.572,11.014,10.96,9.778,13-6.017,9.832-16.01-2.74-14.828-4.782L623.6,554.616l9.4,12.411,7.9,14.184-7.253,8.919L618.12,585.24,604.1,578.47l-9.671,10.315,7.629,13.593,5.91,15.151-8.435,7.844-14.667-6.984-13-8.6-10.96,8.919,5.695,14.452,3.815,15.849-9.4,6.608L547.416,646.7,535.7,636.441l-12.088,7.307,3.653,15.151,1.612,16.172-10.208,5.265-12.25-10.691-10.208-11.766-13,5.641,1.612,15.473-.591,16.225-10.853,3.868-10.691-12.25L454.2,673.78l-13.646,3.815-.537,15.527-2.794,16.01-11.283,2.31-8.919-13.593-6.608-14.076-14.023,1.934-2.633,15.312-5,15.473-11.5.806Zm87.251-105.787L403,501.7a149.388,149.388,0,0,1-53.189,6.34l-34.17,121.206A272.843,272.843,0,0,0,464.517,611.565Zm-209.693.537,34.17-121.26a148.911,148.911,0,0,1-42.068-33.149L137.109,519.21A272.735,272.735,0,0,0,254.823,612.1ZM612.532,462.959l-121.206-34.17a147.9,147.9,0,0,1-33.2,42.014l61.57,109.87A273.017,273.017,0,0,0,612.532,462.959Zm-506.316,1.128,109.87-61.516a149.535,149.535,0,0,1-6.34-53.189L88.541,315.212A272.346,272.346,0,0,0,106.217,464.087Zm338.9-81.18a89.371,89.371,0,1,0-110.246,61.785A89.347,89.347,0,0,0,445.121,382.907Zm166.874-129.7-109.87,61.517a147.282,147.282,0,0,1,6.34,53.189l121.206,34.224A272.537,272.537,0,0,0,611.995,253.212ZM260.088,246.5l-61.516-109.87A273.048,273.048,0,0,0,105.679,254.34l121.206,34.224A149.084,149.084,0,0,1,260.088,246.5Zm211.2,13.109L581.1,198.089A272.229,272.229,0,0,0,463.388,105.25l-34.17,121.206a149.669,149.669,0,0,1,42.068,33.149Zm-156.075-44a148.161,148.161,0,0,1,53.189-6.286L402.57,88.111A272.346,272.346,0,0,0,253.7,105.787Z" transform="translate(0 0)" fill="#007991"/>
</svg>
