<?xml version="1.0" encoding="utf-8"?>
<!-- Generator: Adobe Illustrator 26.3.1, SVG Export Plug-In . SVG Version: 6.00 Build 0)  -->
<svg version="1.1" id="Layer_1" xmlns="http://www.w3.org/2000/svg" xmlns:xlink="http://www.w3.org/1999/xlink" x="0px" y="0px"
	 viewBox="0 0 200 200" style="enable-background:new 0 0 200 200;" xml:space="preserve">
<style type="text/css">
	.st0{fill-rule:evenodd;clip-rule:evenodd;}
</style>
<g>
	<path class="st0" d="M108.52,193.44l-2.41-4.83l-1.42-4.9l-4.88-0.04l-1.45,4.9l-2.48,4.79l-3.71-0.34l-1.54-5.18l-0.53-5.08
		l-4.81-0.87l-2.29,4.56l-3.28,4.29l-3.58-0.99l-0.62-5.36l0.35-5.09l-4.58-1.68l-3.05,4.08l-3.98,3.67l-3.35-1.6l0.32-5.39
		l1.22-4.95l-4.22-2.47l-3.71,3.5l-4.54,2.93l-3.03-2.15l1.24-5.27l2.08-4.65l-3.73-3.16l-4.26,2.79l-4.99,2.09l-2.61-2.64
		l2.13-4.97l2.86-4.23l-3.12-3.76l-4.69,2.02l-5.27,1.19l-2.11-3.07l2.96-4.51l3.55-3.67l-2.43-4.24l-4.95,1.17l-5.39,0.25
		l-1.56-3.37l3.71-3.92l4.12-3.02l-1.63-4.6l-5.09,0.3l-5.36-0.69l-0.94-3.6l4.33-3.21l4.58-2.25l-0.82-4.81l-5.08-0.59l-5.15-1.62
		L9,105.52l4.83-2.41l4.9-1.42l0.04-4.88l-4.9-1.47l-4.79-2.47l0.34-3.71l5.18-1.54l5.08-0.55l0.87-4.79l-4.56-2.29l-4.29-3.28
		l0.99-3.58l5.36-0.62l5.09,0.35l1.69-4.6l-4.08-3.03l-3.67-3.98l1.6-3.35l5.39,0.3L29,59.43l2.47-4.22l-3.5-3.71l-2.93-4.54
		l2.15-3.03l5.27,1.24l4.65,2.08l3.16-3.73l-2.8-4.26l-2.08-4.99l2.64-2.63l4.95,2.15l4.24,2.86l3.76-3.12l-2.02-4.68l-1.19-5.27
		l3.07-2.11l4.51,2.96l3.67,3.55l4.24-2.43l-1.17-4.95l-0.27-5.41l3.39-1.54l3.92,3.71l3,4.12l4.61-1.63l-0.3-5.09l0.69-5.36
		l3.58-0.94l3.23,4.33l2.24,4.58l4.83-0.82l0.59-5.08l1.61-5.15L96.93,6l2.41,4.83l1.42,4.9l4.88,0.02l1.47-4.88l2.47-4.79
		l3.71,0.34l1.54,5.18l0.53,5.06l4.81,0.89l2.29-4.56l3.28-4.3l3.58,0.98l0.62,5.38l-0.36,5.09l4.58,1.69l3.05-4.08l3.97-3.67
		l3.35,1.6l-0.3,5.39L143.01,26l4.22,2.47l3.71-3.51l4.54-2.91l3.03,2.15l-1.24,5.25l-2.08,4.67l3.73,3.16l4.26-2.8l4.99-2.08
		l2.63,2.64L168.66,40l-2.86,4.22l3.12,3.76l4.69-2.02l5.27-1.19l2.11,3.07l-2.96,4.51l-3.53,3.67l2.41,4.24l4.95-1.17l5.39-0.27
		l1.56,3.39l-3.71,3.92l-4.12,3l1.63,4.6l5.09-0.28l5.36,0.69l0.94,3.58l-4.33,3.23l-4.58,2.24l0.82,4.83L191,88.6l5.15,1.62
		l0.3,3.71l-4.83,2.41l-4.9,1.42l-0.02,4.88l4.88,1.46l4.79,2.49l-0.34,3.71l-5.18,1.54l-5.07,0.53l-0.87,4.81l4.56,2.29l4.29,3.28
		l-0.98,3.59l-5.38,0.62l-5.07-0.36l-1.7,4.58l4.08,3.05l3.67,3.98l-1.6,3.35l-5.39-0.32l-4.95-1.22l-2.47,4.22l3.5,3.71l2.93,4.54
		l-2.15,3.03l-5.25-1.24l-4.67-2.08l-3.16,3.73l2.8,4.26l2.08,4.99l-2.64,2.61l-4.97-2.13l-4.22-2.86l-3.76,3.12l2.02,4.68
		l1.19,5.27l-3.07,2.11l-4.51-2.96l-3.67-3.55l-4.24,2.43l1.17,4.95l0.27,5.39l-3.39,1.56l-3.92-3.71l-3-4.12l-4.61,1.63l0.3,5.09
		l-0.69,5.36l-3.58,0.94l-3.23-4.33l-2.24-4.58l-4.83,0.82l-0.59,5.06l-1.62,5.16L108.52,193.44z M118.08,149.63
		c0-8.48-6.89-15.37-15.37-15.37c-8.46,0-15.35,6.89-15.35,15.37c0,8.48,6.88,15.35,15.35,15.35
		C111.2,164.98,118.08,158.11,118.08,149.63z M78.3,145.87c6-6,6-15.72,0-21.72c-6-6-15.74-6-21.72,0c-6,6-6,15.72,0,21.72
		C62.57,151.87,72.3,151.87,78.3,145.87z M148.87,145.87c6-6,6-15.72,0-21.72c-6-6-15.72-6-21.72,0c-6,6-6,15.72,0,21.72
		C133.15,151.87,142.87,151.87,148.87,145.87z M123,99.71c0-11.18-9.09-20.27-20.28-20.27c-11.18,0-20.27,9.08-20.27,20.27
		c0,11.2,9.09,20.28,20.27,20.28C113.91,120,123,110.91,123,99.71z M68.16,99.71c0-8.47-6.87-15.35-15.35-15.35
		c-8.48,0-15.37,6.89-15.37,15.35c0,8.48,6.89,15.37,15.37,15.37C61.3,115.08,68.16,108.2,68.16,99.71z M167.98,99.71
		c0-8.47-6.87-15.35-15.35-15.35c-8.48,0-15.37,6.89-15.37,15.35c0,8.48,6.89,15.37,15.37,15.37
		C161.11,115.08,167.98,108.2,167.98,99.71z M78.3,75.3c6-6,6-15.74,0-21.72c-6-6-15.72-6-21.72,0c-6,5.98-6,15.72,0,21.72
		C62.56,81.28,72.3,81.28,78.3,75.3z M148.87,75.3c6-6,6-15.74,0-21.72c-6-6-15.72-6-21.72,0c-6,5.98-6,15.72,0,21.72
		C133.15,81.28,142.87,81.28,148.87,75.3z M118.08,49.81c0-8.48-6.89-15.37-15.37-15.37c-8.46,0-15.35,6.89-15.35,15.37
		s6.88,15.35,15.35,15.35C111.2,65.16,118.08,58.3,118.08,49.81z"/>
	<path class="st0" d="M86.76,99.71c0-8.8,7.15-15.95,15.95-15.95c8.82,0,15.97,7.15,15.97,15.95c0,8.82-7.15,15.97-15.97,15.97
		C93.91,115.69,86.76,108.53,86.76,99.71z M113.36,99.71c0-5.86-4.77-10.63-10.65-10.63c-5.86,0-10.63,4.77-10.63,10.63
		c0,5.87,4.77,10.65,10.63,10.65C108.59,110.36,113.36,105.59,113.36,99.71z"/>
	<path class="st0" d="M102.71,93.47c3.46,0,6.26,2.8,6.26,6.25c0,3.46-2.8,6.26-6.26,6.26c-3.44,0-6.25-2.8-6.25-6.26
		C96.47,96.27,99.27,93.47,102.71,93.47z"/>
</g>
</svg>
